# Blender v2.78 (sub 0) OBJ File: ''
# www.blender.org
o Cube_Cube.001
v -1.000000 -1.000000 -1.000000
v -1.000000 -1.000000 1.000000
v -1.000000 1.000000 -1.000000
v -1.000000 1.000000 1.000000
v 1.000000 -1.000000 -1.000000
v 1.000000 -1.000000 1.000000
v 1.000000 1.000000 -1.000000
v 1.000000 1.000000 1.000000
vn -1.0000 0.0000 0.0000
vn 0.0000 1.0000 0.0000
vn 0.0000 -1.0000 0.0000
vn 0.0000 0.0000 -1.0000
s off
f 1//1 2//1 4//1 3//1
f 3//2 4//2 8//2 7//2
f 5//3 6//3 2//3 1//3
f 3//4 7//4 5//4 1//4
